<?xml version="1.0" encoding="UTF-8" standalone="no"?>
<!-- Created with Inkscape (http://www.inkscape.org/) -->

<svg
   xmlns:dc="http://purl.org/dc/elements/1.1/"
   xmlns:cc="http://creativecommons.org/ns#"
   xmlns:rdf="http://www.w3.org/1999/02/22-rdf-syntax-ns#"
   xmlns:svg="http://www.w3.org/2000/svg"
   xmlns="http://www.w3.org/2000/svg"
   xmlns:sodipodi="http://sodipodi.sourceforge.net/DTD/sodipodi-0.dtd"
   xmlns:inkscape="http://www.inkscape.org/namespaces/inkscape"
   width="128"
   height="128"
   id="svg2"
   version="1.1"
   inkscape:version="0.47pre4 r22446"
   sodipodi:docname="favicon.svg"
   inkscape:export-filename="/home/ubuntu/filteroid/static/images/favicon.png"
   inkscape:export-xdpi="11.25"
   inkscape:export-ydpi="11.25">
  <defs
     id="defs4">
    <inkscape:perspective
       sodipodi:type="inkscape:persp3d"
       inkscape:vp_x="-1.0870488 : 526.18109 : 1"
       inkscape:vp_y="0 : 1000 : 0"
       inkscape:vp_z="743.00743 : 526.18109 : 1"
       inkscape:persp3d-origin="370.96019 : 350.78739 : 1"
       id="perspective10" />
  </defs>
  <sodipodi:namedview
     id="base"
     pagecolor="#ffffff"
     bordercolor="#666666"
     borderopacity="1.0"
     inkscape:pageopacity="0.0"
     inkscape:pageshadow="2"
     inkscape:zoom="1.8398438"
     inkscape:cx="33.350295"
     inkscape:cy="42.870488"
     inkscape:document-units="px"
     inkscape:current-layer="layer1"
     showgrid="false"
     showguides="true"
     inkscape:snap-grids="true"
     objecttolerance="4"
     guidetolerance="4"
     inkscape:snap-page="true"
     inkscape:snap-global="true"
     inkscape:window-width="1024"
     inkscape:window-height="722"
     inkscape:window-x="0"
     inkscape:window-y="25"
     inkscape:window-maximized="1" />
  <metadata
     id="metadata7">
    <rdf:RDF>
      <cc:Work
         rdf:about="">
        <dc:format>image/svg+xml</dc:format>
        <dc:type
           rdf:resource="http://purl.org/dc/dcmitype/StillImage" />
        <dc:title />
      </cc:Work>
    </rdf:RDF>
  </metadata>
  <g
     inkscape:label="Layer 1"
     inkscape:groupmode="layer"
     id="layer1"
     transform="translate(0,-924.36218)">
    <rect
       style="fill:#3aa248;fill-opacity:1"
       id="rect2820"
       width="128"
       height="128"
       x="0"
       y="924.36218" />
    <g
       style="font-size:59.53519058px;font-style:normal;font-weight:normal;fill:#ffffff;fill-opacity:1;stroke:none;font-family:Bitstream Vera Sans"
       id="text3594"
       transform="matrix(1.9659439,0.36751165,-0.36751165,1.9659439,376.91312,-1027.7002)">
      <path
         d="m 24.953938,991.54059 29.667239,5.66702 -1.587201,8.30909 -18.674086,-3.5671 -1.516287,7.9379 17.560493,3.3544 -1.587211,8.3091 -17.560492,-3.3543 c 0,0 -1.652674,5.676 -3.14099,8.477 -1.248621,2.3499 -5.157764,3.9123 -6.022767,7.0106 0.03178,1.0198 0.244104,1.3134 0.676785,2.0162 0.477286,0.7753 0.632715,1.3102 0.445688,1.8037 -0.262694,0.6931 -0.484491,0.8716 -1.293643,1.0043 -0.735906,0.1207 -1.247202,-0.178 -1.546147,-0.6505 -0.36064,-0.57 -0.04075,-1.351 0.08974,-2.0216 0.130491,-0.6707 0.358215,-1.1079 0.668641,-2.1865 0.05269,-3.3419 -2.854069,-6.8978 -2.415838,-9.463 1.215294,-7.1139 6.236069,-32.64631 6.236069,-32.64631"
         style="font-variant:normal;font-weight:bold;font-stretch:normal;fill:#ffffff;font-family:DejaVu Sans;-inkscape-font-specification:DejaVu Sans Bold"
         id="path3599"
         sodipodi:nodetypes="ccccccccscsssazcsc" />
    </g>
    <path
       sodipodi:type="arc"
       style="fill:#aeff6d;fill-opacity:1"
       id="path3633"
       sodipodi:cx="28.874735"
       sodipodi:cy="60.399151"
       sodipodi:rx="4.9596605"
       sodipodi:ry="4.9596605"
       d="m 33.834395,60.399151 c 0,2.739145 -2.220515,4.95966 -4.95966,4.95966 -2.739145,0 -4.959661,-2.220515 -4.959661,-4.95966 0,-2.739145 2.220516,-4.959661 4.959661,-4.959661 2.739145,0 4.95966,2.220516 4.95966,4.959661 z"
       transform="matrix(1.849315,0,0,1.849315,-16.506761,928.19373)" />
  </g>
</svg>
